<svg xmlns="http://www.w3.org/2000/svg" version="1.1" xmlns:xlink="http://www.w3.org/1999/xlink" xmlns:svgjs="http://svgjs.dev/svgjs" width="1500" height="382" viewBox="0 0 1500 382"><g transform="matrix(1,0,0,1,-0.9090909090909918,0.32678216153354356)"><svg viewBox="0 0 396 101" data-background-color="#000000" preserveAspectRatio="xMidYMid meet" height="382" width="1500" xmlns="http://www.w3.org/2000/svg" xmlns:xlink="http://www.w3.org/1999/xlink"><g id="tight-bounds" transform="matrix(1,0,0,1,0.2400000000000091,-0.0864005191489241)"><svg viewBox="0 0 395.52 101.17280103829788" height="101.17280103829788" width="395.52"><rect width="395.52" height="101.17280103829788" fill="url(#44915ad8-e2e3-4c41-9e91-62d3e2b234c3)" mask="url(#7123424e-f8c0-4977-a301-09df51293c51)" data-fill-palette-color="tertiary"></rect><g><svg viewBox="0 0 395.52 101.17280103829788" height="101.17280103829788" width="395.52"><g><svg viewBox="0 0 395.52 101.17280103829788" height="101.17280103829788" width="395.52"><g id="textblocktransform"><svg viewBox="0 0 395.52 101.17280103829788" height="101.17280103829788" width="395.52" id="textblock"><g><rect width="395.52" height="80.56353191489362" fill="none" stroke-width="9.018103199999999" stroke="url(#44915ad8-e2e3-4c41-9e91-62d3e2b234c3)" data-fill-palette-color="none" data-stroke-palette-color="tertiary"></rect><rect width="395.52" height="20.609269123404253" y="80.56353191489362" fill="url(#44915ad8-e2e3-4c41-9e91-62d3e2b234c3)" data-fill-palette-color="tertiary"></rect></g><g><svg viewBox="0 0 395.52 80.56353191489362" height="80.56353191489362" width="395.52"><g transform="matrix(1,0,0,1,23.607599999999998,23.6076)"><svg width="348.3048" viewBox="1 -36.4 385.37 36.9" height="33.34833191489361" data-palette-color="url(#c6d16d34-b95f-4d78-ad89-2064492d9faf)"></svg></g></svg></g></svg></g></svg></g></svg></g><defs></defs><mask id="c59cd043-a7bf-4791-805f-ca9ae11e542e"><g id="SvgjsG4568"><svg viewBox="0 0 395.52 101.17280103829788" height="101.17280103829788" width="395.52"><g><svg viewBox="0 0 395.52 101.17280103829788" height="101.17280103829788" width="395.52"><g><svg viewBox="0 0 395.52 101.17280103829788" height="101.17280103829788" width="395.52"><g id="SvgjsG4567"><svg viewBox="0 0 395.52 101.17280103829788" height="101.17280103829788" width="395.52" id="SvgjsSvg4566"><g><rect width="395.52" height="80.56353191489362" fill="black" stroke-width="9.018103199999999" stroke="url(#44915ad8-e2e3-4c41-9e91-62d3e2b234c3)" data-stroke-palette-color="tertiary"></rect><rect width="395.52" height="20.609269123404253" y="80.56353191489362" fill="black"></rect></g><g><svg viewBox="0 0 395.52 80.56353191489362" height="80.56353191489362" width="395.52"><g transform="matrix(1,0,0,1,23.607599999999998,23.6076)"><svg width="348.3048" viewBox="1 -36.4 385.37 36.9" height="33.34833191489361" data-palette-color="url(#c6d16d34-b95f-4d78-ad89-2064492d9faf)"><path d="M18.8 0L10.4 0 10.4-27.8 1-27.8 1-34.3 28.25-34.3 28.25-27.8 18.8-27.8 18.8 0ZM38.7 0.5L37.55 0.5Q34.4 0.5 32.02-0.6 29.65-1.7 28.32-3.8 27-5.9 27-8.9L27-8.9 27-11.75 34.7-11.75 34.7-9.35Q34.7-7.6 35.65-6.7 36.6-5.8 38.05-5.8L38.05-5.8Q39-5.8 39.77-6.2 40.55-6.6 41-7.4 41.45-8.2 41.45-9.35L41.45-9.35 41.45-34.3 49.7-34.3 49.7-9.45Q49.7-6.4 48.27-4.17 46.85-1.95 44.37-0.73 41.9 0.5 38.7 0.5L38.7 0.5ZM73.7 0L56.55 0 56.55-34.3 73.8-34.3Q76.4-34.3 78.47-33.35 80.55-32.4 81.75-30.6 82.95-28.8 82.95-26.25L82.95-26.25Q82.95-23.8 82.09-22.13 81.25-20.45 79.92-19.45 78.59-18.45 77.09-17.95L77.09-17.95 77.09-17.7Q78.2-17.45 79.34-16.93 80.5-16.4 81.5-15.48 82.5-14.55 83.12-13.2 83.75-11.85 83.75-9.95L83.75-9.95Q83.75-7 82.37-4.78 81-2.55 78.75-1.28 76.5 0 73.7 0L73.7 0ZM64.4-14.5L64.4-6.2 71.55-6.2Q72.8-6.2 73.7-6.78 74.59-7.35 75.12-8.35 75.65-9.35 75.65-10.6L75.65-10.6Q75.65-11.9 75.09-12.75 74.55-13.6 73.62-14.05 72.7-14.5 71.59-14.5L71.59-14.5 64.4-14.5ZM64.4-28.3L64.4-20.5 71.3-20.5Q72.5-20.5 73.32-21.08 74.15-21.65 74.57-22.63 75-23.6 75-24.7L75-24.7Q75-26.55 74.07-27.43 73.15-28.3 71.55-28.3L71.55-28.3 64.4-28.3ZM93.19 0L85.09 0 97.34-34.3 107.44-34.3 119.64 0 110.94 0 108.49-6.8 95.59-6.8 93.19 0ZM101.94-25.65L97.59-12.7 106.49-12.7 102.19-25.65 101.94-25.65ZM131.54 0L123.14 0 123.14-34.3 131.54-34.3 131.54-18.85 143.59-34.3 152.54-34.3 141.39-20.25 152.99 0 143.59 0 135.89-13.8 131.54-8.65 131.54 0ZM171.79 0L163.39 0 163.39-27.8 153.99-27.8 153.99-34.3 181.24-34.3 181.24-27.8 171.79-27.8 171.79 0ZM203.48 0L195.63 0 195.63-36 203.48-36 203.48-14.2 212.23-25.55 221.28-25.55 211.78-13.9 221.58 0 212.28 0 206.23-8.55 203.48-5.9 203.48 0ZM231.43 0.5L231.43 0.5Q229.38 0.5 227.53-0.2 225.68-0.9 224.51-2.48 223.33-4.05 223.33-6.75L223.33-6.75Q223.33-9.45 224.51-11.18 225.68-12.9 227.91-13.85 230.13-14.8 233.26-15.18 236.38-15.55 240.23-15.55L240.23-15.55 240.23-17.6Q240.23-19.6 239.13-20.43 238.03-21.25 236.03-21.25L236.03-21.25Q234.23-21.25 232.98-20.45 231.73-19.65 231.73-18.1L231.73-18.1 231.73-17.75 224.18-17.75Q224.13-17.9 224.13-18.13 224.13-18.35 224.13-18.6L224.13-18.6Q224.13-20.75 225.53-22.45 226.93-24.15 229.51-25.1 232.08-26.05 235.53-26.05L235.53-26.05 236.78-26.05Q242.38-26.05 245.13-23.88 247.88-21.7 247.88-18.1L247.88-18.1 247.88-6.3Q247.88-5.35 248.36-4.93 248.83-4.5 249.38-4.5L249.38-4.5Q249.88-4.5 250.38-4.67 250.88-4.85 251.33-5.05L251.33-5.05 251.33-0.6Q250.68-0.1 249.58 0.2 248.48 0.5 246.78 0.5L246.78 0.5Q244.88 0.5 243.56-0.08 242.23-0.65 241.53-1.6 240.83-2.55 240.63-3.8L240.63-3.8Q239.23-2 236.98-0.75 234.73 0.5 231.43 0.5ZM235.33-4.5L235.33-4.5Q236.58-4.5 237.71-5.08 238.83-5.65 239.53-6.78 240.23-7.9 240.23-9.55L240.23-9.55 240.23-11.6Q237.33-11.6 235.38-11.2 233.43-10.8 232.46-9.95 231.48-9.1 231.48-7.6L231.48-7.6Q231.48-5.85 232.56-5.18 233.63-4.5 235.33-4.5ZM264.93 0L257.08 0 257.08-19.8 253.98-19.8 253.98-25.55 257.08-25.55 257.08-29.4Q257.08-33.15 259.33-34.77 261.58-36.4 265.08-36.4L265.08-36.4Q265.88-36.4 266.95-36.27 268.03-36.15 269.1-35.93 270.18-35.7 270.88-35.4L270.88-35.4 270.88-30.8Q270.33-31 269.33-31.18 268.33-31.35 267.78-31.35L267.78-31.35Q267.18-31.35 266.5-31.18 265.83-31 265.38-30.38 264.93-29.75 264.93-28.35L264.93-28.35 264.93-25.55 270.93-25.55 270.93-19.8 264.93-19.8 264.93 0ZM287.38 0.5L286.78 0.5Q283.03 0.5 280.15-0.98 277.28-2.45 275.65-5.28 274.03-8.1 274.03-12.1L274.03-12.1 274.03-13.45Q274.03-17.5 275.7-20.33 277.38-23.15 280.28-24.6 283.18-26.05 286.93-26.05L286.93-26.05 287.88-26.05Q291.48-26.05 294.08-24.65 296.68-23.25 298.08-20.73 299.48-18.2 299.48-14.9L299.48-14.9 299.48-11.75 282.38-11.75Q282.38-9.65 282.85-8 283.33-6.35 284.4-5.43 285.48-4.5 287.23-4.5L287.23-4.5Q288.78-4.5 289.85-5.1 290.93-5.7 291.53-6.83 292.13-7.95 292.13-9.55L292.13-9.55 299.43-9.55Q299.43-6.65 297.9-4.38 296.38-2.1 293.68-0.8 290.98 0.5 287.38 0.5L287.38 0.5ZM282.38-15.55L282.38-15.55 291.73-15.55Q291.73-18.4 290.48-19.73 289.23-21.05 287.18-21.05L287.18-21.05Q285.13-21.05 283.8-19.65 282.48-18.25 282.38-15.55ZM313.82 0.5L313.82 0.5Q310.72 0.5 308.4-0.93 306.07-2.35 304.77-5.28 303.47-8.2 303.47-12.65L303.47-12.65 303.47-13.2Q303.47-17.5 304.87-20.35 306.27-23.2 308.6-24.63 310.92-26.05 313.62-26.05L313.62-26.05Q316.27-26.05 318.02-25.08 319.77-24.1 320.67-22.65L320.67-22.65 320.67-36 328.52-36 328.52 0 322.32 0 321.52-3.3Q320.37-1.75 318.5-0.63 316.62 0.5 313.82 0.5ZM316.22-4.5L316.22-4.5Q317.47-4.5 318.47-5.13 319.47-5.75 320.07-7 320.67-8.25 320.67-10.1L320.67-10.1 320.67-15.5Q320.67-17.25 320.07-18.45 319.47-19.65 318.47-20.28 317.47-20.9 316.22-20.9L316.22-20.9Q314.37-20.9 313.1-19.48 311.82-18.05 311.82-15.5L311.82-15.5 311.82-10.15Q311.82-8.3 312.4-7.05 312.97-5.8 313.97-5.15 314.97-4.5 316.22-4.5ZM342.47 0L334.72 0 334.72-25.55 340.62-25.55 341.52-21.85Q341.67-22.05 342.1-22.73 342.52-23.4 343.37-24.18 344.22-24.95 345.47-25.5 346.72-26.05 348.42-26.05L348.42-26.05Q350.97-26.05 352.57-25.1 354.17-24.15 354.95-22.38 355.72-20.6 355.72-18.15L355.72-18.15Q355.72-17.6 355.67-16.88 355.62-16.15 355.57-15.55L355.57-15.55 349.07-15.55 349.07-16.65Q349.07-17.5 348.75-18.35 348.42-19.2 347.72-19.73 347.02-20.25 345.82-20.25L345.82-20.25Q344.92-20.25 344.27-19.9 343.62-19.55 343.22-18.98 342.82-18.4 342.65-17.73 342.47-17.05 342.47-16.35L342.47-16.35 342.47 0ZM366.47 0.5L366.47 0.5Q364.42 0.5 362.57-0.2 360.72-0.9 359.54-2.48 358.37-4.05 358.37-6.75L358.37-6.75Q358.37-9.45 359.54-11.18 360.72-12.9 362.94-13.85 365.17-14.8 368.29-15.18 371.42-15.55 375.27-15.55L375.27-15.55 375.27-17.6Q375.27-19.6 374.17-20.43 373.07-21.25 371.07-21.25L371.07-21.25Q369.27-21.25 368.02-20.45 366.77-19.65 366.77-18.1L366.77-18.1 366.77-17.75 359.22-17.75Q359.17-17.9 359.17-18.13 359.17-18.35 359.17-18.6L359.17-18.6Q359.17-20.75 360.57-22.45 361.97-24.15 364.54-25.1 367.12-26.05 370.57-26.05L370.57-26.05 371.82-26.05Q377.42-26.05 380.17-23.88 382.92-21.7 382.92-18.1L382.92-18.1 382.92-6.3Q382.92-5.35 383.39-4.93 383.87-4.5 384.42-4.5L384.42-4.5Q384.92-4.5 385.42-4.67 385.92-4.85 386.37-5.05L386.37-5.05 386.37-0.6Q385.72-0.1 384.62 0.2 383.52 0.5 381.82 0.5L381.82 0.5Q379.92 0.5 378.59-0.08 377.27-0.65 376.57-1.6 375.87-2.55 375.67-3.8L375.67-3.8Q374.27-2 372.02-0.75 369.77 0.5 366.47 0.5ZM370.37-4.5L370.37-4.5Q371.62-4.5 372.74-5.08 373.87-5.65 374.57-6.78 375.27-7.9 375.27-9.55L375.27-9.55 375.27-11.6Q372.37-11.6 370.42-11.2 368.47-10.8 367.49-9.95 366.52-9.1 366.52-7.6L366.52-7.6Q366.52-5.85 367.59-5.18 368.67-4.5 370.37-4.5Z" opacity="1" transform="matrix(1,0,0,1,0,0)" fill="white" class="wordmark-text-0" id="SvgjsPath4565"></path></svg></g></svg></g></svg></g></svg></g></svg></g><defs><mask></mask></defs></svg><rect width="395.52" height="101.17280103829788" fill="black" stroke="none" visibility="hidden"></rect></g></mask><linearGradient x1="0" x2="1" y1="0.5" y2="0.5" id="c6d16d34-b95f-4d78-ad89-2064492d9faf"><stop stop-color="#ffa62e" offset="0"></stop><stop stop-color="#f71b3d" offset="1"></stop></linearGradient><rect width="395.52" height="101.17280103829788" fill="url(#c6d16d34-b95f-4d78-ad89-2064492d9faf)" mask="url(#c59cd043-a7bf-4791-805f-ca9ae11e542e)" data-fill-palette-color="primary"></rect><mask id="7123424e-f8c0-4977-a301-09df51293c51"><g id="SvgjsG4591"><svg viewBox="0 0 395.52 101.17280103829788" height="101.17280103829788" width="395.52"><g><svg viewBox="0 0 395.52 101.17280103829788" height="101.17280103829788" width="395.52"><g><svg viewBox="0 0 395.52 101.17280103829788" height="101.17280103829788" width="395.52"><g id="SvgjsG4590"><svg viewBox="0 0 395.52 101.17280103829788" height="101.17280103829788" width="395.52" id="SvgjsSvg4589"><g><rect width="395.52" height="80.56353191489362" fill="black" stroke-width="9.018103199999999" stroke="url(#44915ad8-e2e3-4c41-9e91-62d3e2b234c3)" data-stroke-palette-color="tertiary"></rect><rect width="395.52" height="20.609269123404253" y="80.56353191489362" fill="white"></rect></g><g><svg viewBox="0 0 395.52 80.56353191489362" height="80.56353191489362" width="395.52"><g transform="matrix(1,0,0,1,23.607599999999998,23.6076)"><svg width="348.3048" viewBox="1 -36.4 385.37 36.9" height="33.34833191489361" data-palette-color="url(#c6d16d34-b95f-4d78-ad89-2064492d9faf)"></svg></g></svg></g></svg></g></svg></g></svg></g><defs><mask></mask></defs><mask><g id="SvgjsG4588"><svg viewBox="0 0 395.52 101.17280103829788" height="101.17280103829788" width="395.52"><g><svg viewBox="0 0 395.52 101.17280103829788" height="101.17280103829788" width="395.52"><g><svg viewBox="0 0 395.52 101.17280103829788" height="101.17280103829788" width="395.52"><g id="SvgjsG4587"><svg viewBox="0 0 395.52 101.17280103829788" height="101.17280103829788" width="395.52" id="SvgjsSvg4586"><g><rect width="395.52" height="80.56353191489362" fill="black" stroke-width="9.018103199999999" stroke="url(#44915ad8-e2e3-4c41-9e91-62d3e2b234c3)" data-stroke-palette-color="tertiary"></rect><rect width="395.52" height="20.609269123404253" y="80.56353191489362" fill="black"></rect></g><g><svg viewBox="0 0 395.52 80.56353191489362" height="80.56353191489362" width="395.52"><g transform="matrix(1,0,0,1,23.607599999999998,23.6076)"><svg width="348.3048" viewBox="1 -36.4 385.37 36.9" height="33.34833191489361" data-palette-color="url(#c6d16d34-b95f-4d78-ad89-2064492d9faf)"><path d="M18.8 0L10.4 0 10.4-27.8 1-27.8 1-34.3 28.25-34.3 28.25-27.8 18.8-27.8 18.8 0ZM38.7 0.5L37.55 0.5Q34.4 0.5 32.02-0.6 29.65-1.7 28.32-3.8 27-5.9 27-8.9L27-8.9 27-11.75 34.7-11.75 34.7-9.35Q34.7-7.6 35.65-6.7 36.6-5.8 38.05-5.8L38.05-5.8Q39-5.8 39.77-6.2 40.55-6.6 41-7.4 41.45-8.2 41.45-9.35L41.45-9.35 41.45-34.3 49.7-34.3 49.7-9.45Q49.7-6.4 48.27-4.17 46.85-1.95 44.37-0.73 41.9 0.5 38.7 0.5L38.7 0.5ZM73.7 0L56.55 0 56.55-34.3 73.8-34.3Q76.4-34.3 78.47-33.35 80.55-32.4 81.75-30.6 82.95-28.8 82.95-26.25L82.95-26.25Q82.95-23.8 82.09-22.13 81.25-20.45 79.92-19.45 78.59-18.45 77.09-17.95L77.09-17.95 77.09-17.7Q78.2-17.45 79.34-16.93 80.5-16.4 81.5-15.48 82.5-14.55 83.12-13.2 83.75-11.85 83.75-9.95L83.75-9.95Q83.75-7 82.37-4.78 81-2.55 78.75-1.28 76.5 0 73.7 0L73.7 0ZM64.4-14.5L64.4-6.2 71.55-6.2Q72.8-6.2 73.7-6.78 74.59-7.35 75.12-8.35 75.65-9.35 75.65-10.6L75.65-10.6Q75.65-11.9 75.09-12.75 74.55-13.6 73.62-14.05 72.7-14.5 71.59-14.5L71.59-14.5 64.4-14.5ZM64.4-28.3L64.4-20.5 71.3-20.5Q72.5-20.5 73.32-21.08 74.15-21.65 74.57-22.63 75-23.6 75-24.7L75-24.7Q75-26.55 74.07-27.43 73.15-28.3 71.55-28.3L71.55-28.3 64.4-28.3ZM93.19 0L85.09 0 97.34-34.3 107.44-34.3 119.64 0 110.94 0 108.49-6.8 95.59-6.8 93.19 0ZM101.94-25.65L97.59-12.7 106.49-12.7 102.19-25.65 101.94-25.65ZM131.54 0L123.14 0 123.14-34.3 131.54-34.3 131.54-18.85 143.59-34.3 152.54-34.3 141.39-20.25 152.99 0 143.59 0 135.89-13.8 131.54-8.65 131.54 0ZM171.79 0L163.39 0 163.39-27.8 153.99-27.8 153.99-34.3 181.24-34.3 181.24-27.8 171.79-27.8 171.79 0ZM203.48 0L195.63 0 195.63-36 203.48-36 203.48-14.2 212.23-25.55 221.28-25.55 211.78-13.9 221.58 0 212.28 0 206.23-8.55 203.48-5.9 203.48 0ZM231.43 0.5L231.43 0.5Q229.38 0.5 227.53-0.2 225.68-0.9 224.51-2.48 223.33-4.05 223.33-6.75L223.33-6.75Q223.33-9.45 224.51-11.18 225.68-12.9 227.91-13.85 230.13-14.8 233.26-15.18 236.38-15.55 240.23-15.55L240.23-15.55 240.23-17.6Q240.23-19.6 239.13-20.43 238.03-21.25 236.03-21.25L236.03-21.25Q234.23-21.25 232.98-20.45 231.73-19.65 231.73-18.1L231.73-18.1 231.73-17.75 224.18-17.75Q224.13-17.9 224.13-18.13 224.13-18.35 224.13-18.6L224.13-18.6Q224.13-20.75 225.53-22.45 226.93-24.15 229.51-25.1 232.08-26.05 235.53-26.05L235.53-26.05 236.78-26.05Q242.38-26.05 245.13-23.88 247.88-21.7 247.88-18.1L247.88-18.1 247.88-6.3Q247.88-5.35 248.36-4.93 248.83-4.5 249.38-4.5L249.38-4.5Q249.88-4.5 250.38-4.67 250.88-4.85 251.33-5.05L251.33-5.05 251.33-0.6Q250.68-0.1 249.58 0.2 248.48 0.5 246.78 0.5L246.78 0.5Q244.88 0.5 243.56-0.08 242.23-0.65 241.53-1.6 240.83-2.55 240.63-3.8L240.63-3.8Q239.23-2 236.98-0.75 234.73 0.5 231.43 0.5ZM235.33-4.5L235.33-4.5Q236.58-4.5 237.71-5.08 238.83-5.65 239.53-6.78 240.23-7.9 240.23-9.55L240.23-9.55 240.23-11.6Q237.33-11.6 235.38-11.2 233.43-10.8 232.46-9.95 231.48-9.1 231.48-7.6L231.48-7.6Q231.48-5.85 232.56-5.18 233.63-4.5 235.33-4.5ZM264.93 0L257.08 0 257.08-19.8 253.98-19.8 253.98-25.55 257.08-25.55 257.08-29.4Q257.08-33.15 259.33-34.77 261.58-36.4 265.08-36.4L265.08-36.4Q265.88-36.4 266.95-36.27 268.03-36.15 269.1-35.93 270.18-35.7 270.88-35.4L270.88-35.4 270.88-30.8Q270.33-31 269.33-31.18 268.33-31.35 267.78-31.35L267.78-31.35Q267.18-31.35 266.5-31.18 265.83-31 265.38-30.38 264.93-29.75 264.93-28.35L264.93-28.35 264.93-25.55 270.93-25.55 270.93-19.8 264.93-19.8 264.93 0ZM287.38 0.5L286.78 0.5Q283.03 0.5 280.15-0.98 277.28-2.45 275.65-5.28 274.03-8.1 274.03-12.1L274.03-12.1 274.03-13.45Q274.03-17.5 275.7-20.33 277.38-23.15 280.28-24.6 283.18-26.05 286.93-26.05L286.93-26.05 287.88-26.05Q291.48-26.05 294.08-24.65 296.68-23.25 298.08-20.73 299.48-18.2 299.48-14.9L299.48-14.9 299.48-11.75 282.38-11.75Q282.38-9.65 282.85-8 283.33-6.35 284.4-5.43 285.48-4.5 287.23-4.5L287.23-4.5Q288.78-4.5 289.85-5.1 290.93-5.7 291.53-6.83 292.13-7.95 292.13-9.55L292.13-9.55 299.43-9.55Q299.43-6.65 297.9-4.38 296.38-2.1 293.68-0.8 290.98 0.5 287.38 0.5L287.38 0.5ZM282.38-15.55L282.38-15.55 291.73-15.55Q291.73-18.4 290.48-19.73 289.23-21.05 287.18-21.05L287.18-21.05Q285.13-21.05 283.8-19.65 282.48-18.25 282.38-15.55ZM313.82 0.5L313.82 0.5Q310.72 0.5 308.4-0.93 306.07-2.35 304.77-5.28 303.47-8.2 303.47-12.65L303.47-12.65 303.47-13.2Q303.47-17.5 304.87-20.35 306.27-23.2 308.6-24.63 310.92-26.05 313.62-26.05L313.62-26.05Q316.27-26.05 318.02-25.08 319.77-24.1 320.67-22.65L320.67-22.65 320.67-36 328.52-36 328.52 0 322.32 0 321.52-3.3Q320.37-1.75 318.5-0.63 316.62 0.5 313.82 0.5ZM316.22-4.5L316.22-4.5Q317.47-4.5 318.47-5.13 319.47-5.75 320.07-7 320.67-8.25 320.67-10.1L320.67-10.1 320.67-15.5Q320.67-17.25 320.07-18.45 319.47-19.65 318.47-20.28 317.47-20.9 316.22-20.9L316.22-20.9Q314.37-20.9 313.1-19.48 311.82-18.05 311.82-15.5L311.82-15.5 311.82-10.15Q311.82-8.3 312.4-7.05 312.97-5.8 313.97-5.15 314.97-4.5 316.22-4.5ZM342.47 0L334.72 0 334.72-25.55 340.62-25.55 341.52-21.85Q341.67-22.05 342.1-22.73 342.52-23.4 343.37-24.18 344.22-24.95 345.47-25.5 346.72-26.05 348.42-26.05L348.42-26.05Q350.97-26.05 352.57-25.1 354.17-24.15 354.95-22.38 355.72-20.6 355.72-18.15L355.72-18.15Q355.72-17.6 355.67-16.88 355.62-16.15 355.57-15.55L355.57-15.55 349.07-15.55 349.07-16.65Q349.07-17.5 348.75-18.35 348.42-19.2 347.72-19.73 347.02-20.25 345.82-20.25L345.82-20.25Q344.92-20.25 344.27-19.9 343.62-19.55 343.22-18.98 342.82-18.4 342.65-17.73 342.47-17.05 342.47-16.35L342.47-16.35 342.47 0ZM366.47 0.5L366.47 0.5Q364.42 0.5 362.57-0.2 360.72-0.9 359.54-2.48 358.37-4.05 358.37-6.75L358.37-6.75Q358.37-9.45 359.54-11.18 360.72-12.9 362.94-13.85 365.17-14.8 368.29-15.18 371.42-15.55 375.27-15.55L375.27-15.55 375.27-17.6Q375.27-19.6 374.17-20.43 373.07-21.25 371.07-21.25L371.07-21.25Q369.27-21.25 368.02-20.45 366.77-19.65 366.77-18.1L366.77-18.1 366.77-17.75 359.22-17.75Q359.17-17.9 359.17-18.13 359.17-18.35 359.17-18.6L359.17-18.6Q359.17-20.75 360.57-22.45 361.97-24.15 364.54-25.1 367.12-26.05 370.57-26.05L370.57-26.05 371.82-26.05Q377.42-26.05 380.17-23.88 382.92-21.7 382.92-18.1L382.92-18.1 382.92-6.3Q382.92-5.35 383.39-4.93 383.87-4.5 384.42-4.5L384.42-4.5Q384.92-4.5 385.42-4.67 385.92-4.85 386.37-5.05L386.37-5.05 386.37-0.6Q385.72-0.1 384.62 0.2 383.52 0.5 381.82 0.5L381.82 0.5Q379.92 0.5 378.59-0.08 377.27-0.65 376.57-1.6 375.87-2.55 375.67-3.8L375.67-3.8Q374.27-2 372.02-0.75 369.77 0.5 366.47 0.5ZM370.37-4.5L370.37-4.5Q371.62-4.5 372.74-5.08 373.87-5.65 374.57-6.78 375.27-7.9 375.27-9.55L375.27-9.55 375.27-11.6Q372.37-11.6 370.42-11.2 368.47-10.8 367.49-9.95 366.52-9.1 366.52-7.6L366.52-7.6Q366.52-5.85 367.59-5.18 368.67-4.5 370.37-4.5Z" opacity="1" transform="matrix(1,0,0,1,0,0)" fill="black" class="wordmark-text-0" id="SvgjsPath4585"></path></svg></g></svg></g></svg></g></svg></g></svg></g><defs><mask></mask></defs></svg><rect width="395.52" height="101.17280103829788" fill="black" stroke="none" visibility="hidden"></rect></g></mask></svg><rect width="395.52" height="101.17280103829788" fill="black" stroke="none" visibility="hidden"></rect></g></mask><linearGradient x1="0" x2="1" y1="0.5" y2="0.5" id="44915ad8-e2e3-4c41-9e91-62d3e2b234c3"><stop stop-color="#ffa62e" offset="0"></stop><stop stop-color="#f71b3d" offset="1"></stop></linearGradient></svg><rect width="395.52" height="101.17280103829788" fill="none" stroke="none" visibility="hidden"></rect></g></svg></g></svg>